# xmcd
#
# Track frame offsets: 
#        150
#        24163
#        44105
#        57235
#        72005
#        92930
#        110660
#        132110
#        157760
#        179060
#        202585
#        220583
#        240735
#        259678
#        277433
#        298003
#
# Disc length: 4156 seconds
#
# Revision: 0
# Processed by: cddbd v1.4PL0 Copyright (c) Steve Scherf et al.
# Submitted via: ExactAudioCopy v0.95a3
#
DISCID=ee103a10
DTITLE=Juliane Werding - The Best Of
DYEAR=1900
DGENRE=Vocal
TTITLE0=Sehnsucht ist unheilbar
TTITLE1=Stimmen im Wind
TTITLE2=Nachtexpreß
TTITLE3=Würfelspiel
TTITLE4=Tränen im Ozean
TTITLE5=Wahre Lügen
TTITLE6=Vielleicht irgendwann
TTITLE7=Jenseits der Nacht
TTITLE8=Wenn es Dunkel wird
TTITLE9=Starke Gefühle
TTITLE10=Zeit ist ein eisernes Tor
TTITLE11=Tarot
TTITLE12=Ihr seid nicht allein
TTITLE13=Nebelmond
TTITLE14=Land überm Meer
TTITLE15=Noah ist schuld
EXTD=
EXTT0=
EXTT1=
EXTT2=
EXTT3=
EXTT4=
EXTT5=
EXTT6=
EXTT7=
EXTT8=
EXTT9=
EXTT10=
EXTT11=
EXTT12=
EXTT13=
EXTT14=
EXTT15=
PLAYORDER=
